<svg width="10" height="14" viewBox="0 0 10 14" fill="none" xmlns="http://www.w3.org/2000/svg">
<path d="M9.66667 4.66661C9.66832 3.91111 9.48652 3.16651 9.13688 2.49677C8.78725 1.82704 8.28025 1.25221 7.65943 0.821669C7.03861 0.391127 6.32254 0.11775 5.57275 0.025027C4.82296 -0.0676961 4.06187 0.0230073 3.35487 0.289344C2.64787 0.55568 2.01611 0.989686 1.51386 1.55407C1.01161 2.11845 0.653899 2.79634 0.471456 3.52948C0.289014 4.26262 0.287297 5.0291 0.466454 5.76305C0.645611 6.497 1.00028 7.17648 1.5 7.74311V12.5416C1.49999 12.8163 1.57759 13.0855 1.72384 13.318C1.8701 13.5506 2.07906 13.7371 2.32668 13.8561C2.57429 13.9751 2.85048 14.0217 3.12343 13.9906C3.39638 13.9595 3.655 13.8519 3.8695 13.6803L5 12.7749L6.1305 13.6791C6.34492 13.8507 6.60343 13.9582 6.87628 13.9894C7.14913 14.0205 7.42522 13.974 7.67279 13.8552C7.92037 13.7363 8.12935 13.55 8.27569 13.3176C8.42203 13.0852 8.49978 12.8162 8.5 12.5416V7.74311C9.25151 6.89448 9.66649 5.80017 9.66667 4.66661ZM5 1.16661C5.69223 1.16661 6.36892 1.37188 6.94449 1.75647C7.52007 2.14105 7.96867 2.68768 8.23358 3.32722C8.49848 3.96676 8.5678 4.67049 8.43275 5.34943C8.2977 6.02836 7.96436 6.652 7.47487 7.14148C6.98539 7.63097 6.36175 7.96431 5.68282 8.09936C5.00388 8.23441 4.30015 8.1651 3.66061 7.90019C3.02107 7.63528 2.47444 7.18668 2.08986 6.61111C1.70527 6.03553 1.5 5.35885 1.5 4.66661C1.50093 3.73864 1.86997 2.84894 2.52615 2.19276C3.18233 1.53658 4.07203 1.16754 5 1.16661ZM7.16825 12.8029C7.11889 12.8274 7.06353 12.8371 7.0088 12.8309C6.95407 12.8247 6.90229 12.8028 6.85967 12.7679L5 11.2799L3.14092 12.7679C3.09811 12.8023 3.04648 12.8239 2.99196 12.8302C2.93744 12.8365 2.88224 12.8274 2.83271 12.8037C2.78317 12.7801 2.74131 12.7429 2.71194 12.6966C2.68257 12.6502 2.66688 12.5965 2.66667 12.5416V8.70211C3.37481 9.11544 4.18005 9.33325 5 9.33325C5.81995 9.33325 6.62518 9.11544 7.33333 8.70211V12.5416C7.33398 12.5965 7.31874 12.6503 7.28945 12.6967C7.26015 12.7431 7.21806 12.78 7.16825 12.8029Z" fill="white" fill-opacity="0.7"/>
</svg>
