<svg width="14" height="14" viewBox="0 0 14 14" fill="none" xmlns="http://www.w3.org/2000/svg">
<path d="M5.83333 14H0V12.8333H5.83333V14ZM4.66667 10.5H0V11.6667H4.66667V10.5ZM3.5 8.16667H0V9.33333H3.5V8.16667ZM7 0C5.1441 0.0020073 3.36479 0.74015 2.05247 2.05247C0.74015 3.36479 0.0020073 5.1441 0 7H1.16667C1.16667 5.84628 1.50879 4.71846 2.14976 3.75917C2.79074 2.79989 3.70178 2.05221 4.76768 1.6107C5.83358 1.16919 7.00647 1.05367 8.13803 1.27875C9.26958 1.50383 10.309 2.0594 11.1248 2.87521C11.9406 3.69102 12.4962 4.73042 12.7212 5.86197C12.9463 6.99353 12.8308 8.16642 12.3893 9.23232C11.9478 10.2982 11.2001 11.2093 10.2408 11.8502C9.28154 12.4912 8.15372 12.8333 7 12.8333V14C8.85651 14 10.637 13.2625 11.9497 11.9497C13.2625 10.637 14 8.85651 14 7C14 5.14348 13.2625 3.36301 11.9497 2.05025C10.637 0.737498 8.85651 0 7 0V0ZM6.41667 4.08333V7.2415L8.33758 9.16242L9.16242 8.33758L7.58333 6.7585V4.08333H6.41667Z" fill="white" fill-opacity="0.7"/>
</svg>
