<svg width="62" height="62" viewBox="0 0 62 62" fill="none" xmlns="http://www.w3.org/2000/svg">
<g filter="url(#filter0_d_1191_583)">
<circle cx="31" cy="31" r="23" fill="#222227"/>
</g>
<g clip-path="url(#clip0_1191_583)">
<path d="M19.837 26.0174C19.837 25.4955 20.2515 25.0735 20.804 25.0735C21.3565 25.0735 21.7709 25.4802 21.7709 25.9867C21.7709 26.5239 21.3719 26.9459 20.804 26.9459C20.2514 26.9459 19.837 26.5469 19.837 26.0174ZM20.0903 28.3733H21.5177V36.316H20.0903V28.3733ZM28.7006 35.8555C28.2709 36.2315 27.6186 36.408 26.9739 36.408C25.3854 36.408 24.4799 35.5255 24.4799 33.9216V29.5628H23.1446V28.381H24.4799V26.639H25.9073V28.381H28.1634V29.5628H25.9072V33.8679C25.9072 34.7198 26.3523 35.2032 27.1428 35.2032C27.5571 35.2032 27.9562 35.0651 28.2555 34.8272L28.7006 35.8555ZM50.7329 32.8243H44.3403C44.5169 34.2209 45.6296 35.1495 47.1951 35.1495C48.116 35.1495 48.8911 34.8349 49.4666 34.1902L50.257 35.1188C49.5433 35.9553 48.4613 36.408 47.149 36.408C44.6089 36.408 42.913 34.7121 42.913 32.3485C42.913 29.9925 44.5936 28.3042 46.8651 28.3042C49.1366 28.3042 50.7558 29.9542 50.7558 32.3945C50.7635 32.5096 50.7482 32.6938 50.7329 32.8243ZM44.3403 31.7959H49.3899C49.2441 30.4606 48.2464 29.5168 46.8651 29.5168C45.4991 29.5168 44.4938 30.4453 44.3403 31.7959ZM33.1516 28.3426H33.2897C35.2082 28.3426 36.5128 29.4553 36.5128 31.7883V36.362H35.0854V31.9571C35.0854 30.4683 34.4101 29.7086 33.2206 29.6396H31.3558V36.362H29.9284V31.7883V28.3426H33.1516ZM38.462 28.3426H35.8605C36.3747 28.6189 36.7814 29.0486 37.0423 29.6395H38.3853C39.5747 29.7086 40.2501 30.4683 40.2501 31.9571V36.362H41.6774V31.7883C41.6851 29.4553 40.3805 28.3426 38.462 28.3426Z" fill="#315EFF"/>
<path d="M18.8701 28.3733H17.059L12.6618 34.0061V25.0735H11.2421V36.3159H12.6694L18.8701 28.3733ZM16.3683 32.9394L15.4551 34.0674L17.2585 36.3159H19.0083L16.3683 32.9394Z" fill="#315EFF"/>
</g>
<defs>
<filter id="filter0_d_1191_583" x="0" y="0" width="62" height="62" filterUnits="userSpaceOnUse" color-interpolation-filters="sRGB">
<feFlood flood-opacity="0" result="BackgroundImageFix"/>
<feColorMatrix in="SourceAlpha" type="matrix" values="0 0 0 0 0 0 0 0 0 0 0 0 0 0 0 0 0 0 127 0" result="hardAlpha"/>
<feOffset/>
<feGaussianBlur stdDeviation="4"/>
<feComposite in2="hardAlpha" operator="out"/>
<feColorMatrix type="matrix" values="0 0 0 0 0.192157 0 0 0 0 0.368627 0 0 0 0 1 0 0 0 0.04 0"/>
<feBlend mode="normal" in2="BackgroundImageFix" result="effect1_dropShadow_1191_583"/>
<feBlend mode="normal" in="SourceGraphic" in2="effect1_dropShadow_1191_583" result="shape"/>
</filter>
<clipPath id="clip0_1191_583">
<rect width="40" height="11.4815" fill="white" transform="translate(11 25)"/>
</clipPath>
</defs>
</svg>
